# xmcd
#
# Track frame offsets:
#	150
#	15337
#	27564
#	43052
#	57544
#	68901
#	88263
#	103012
#	119735
#	135672
#	147317
#	150845
#	169180
#	190891
#	218001
#
# Disc length: 4176 seconds
#
# Revision: 0
# Processed by: cddbd v1.5.2PL0 Copyright (c) Steve Scherf et al.
# Submitted via: EasyCDDAExtractor 12.0.1.1
#
DISCID=d8104e0f
DTITLE=Colin Buchanan - Land Of The Getaway
DYEAR=1900
DGENRE=Country
TTITLE0=Land Of The Getaway
TTITLE1=Fishing Fraser Island
TTITLE2=Out On The Wallaby
TTITLE3=Top End Man
TTITLE4=Doo Wah Didjeri
TTITLE5=Bishop Of Burrill
TTITLE6=Get Yourself To Tully
TTITLE7=House #163
TTITLE8=The Smiling Man
TTITLE9=Kick The Ball Around
TTITLE10=I Am The Road (Intro)
TTITLE11=I Am The Road
TTITLE12=K'gari
TTITLE13=Just Another Day
TTITLE14=track title 15
EXTD=
EXTT0=
EXTT1=
EXTT2=
EXTT3=
EXTT4=
EXTT5=
EXTT6=
EXTT7=
EXTT8=
EXTT9=
EXTT10=
EXTT11=
EXTT12=
EXTT13=
EXTT14=
PLAYORDER=
